<svg xmlns="http://www.w3.org/2000/svg" xmlns:xlink="http://www.w3.org/1999/xlink" width="500" zoomAndPan="magnify" viewBox="0 0 375 374.999991" height="500" preserveAspectRatio="xMidYMid meet" version="1.0"><defs><filter x="0%" y="0%" width="100%" height="100%" id="a9d6b9c6e7"><feColorMatrix values="0 0 0 0 1 0 0 0 0 1 0 0 0 0 1 0 0 0 1 0" color-interpolation-filters="sRGB"/></filter><mask id="c85bbc266d"><g filter="url(#a9d6b9c6e7)"><rect x="-37.5" width="450" fill="#000000" y="-37.499999" height="449.999989" fill-opacity="0.12"/></g></mask><clipPath id="7a30abe18c"><path d="M 0 292 L 39 292 L 39 341 L 0 341 Z M 0 292 " clip-rule="nonzero"/></clipPath><clipPath id="ffdc948309"><path d="M 0 224 L 39 224 L 39 273 L 0 273 Z M 0 224 " clip-rule="nonzero"/></clipPath><clipPath id="7e86ee1b14"><path d="M 16 0 L 59 0 L 59 36 L 16 36 Z M 16 0 " clip-rule="nonzero"/></clipPath><clipPath id="e861773ee9"><path d="M 0 88 L 39 88 L 39 138 L 0 138 Z M 0 88 " clip-rule="nonzero"/></clipPath><clipPath id="d3bcb04509"><path d="M 0 20 L 39 20 L 39 69 L 0 69 Z M 0 20 " clip-rule="nonzero"/></clipPath><clipPath id="d32c1566b2"><path d="M 0 156 L 39 156 L 39 206 L 0 206 Z M 0 156 " clip-rule="nonzero"/></clipPath><clipPath id="d903f87d28"><path d="M 56 0 L 98 0 L 98 36 L 56 36 Z M 56 0 " clip-rule="nonzero"/></clipPath><clipPath id="b865957497"><path d="M 95 0 L 138 0 L 138 36 L 95 36 Z M 95 0 " clip-rule="nonzero"/></clipPath><clipPath id="2279d2ec84"><path d="M 135 0 L 177 0 L 177 36 L 135 36 Z M 135 0 " clip-rule="nonzero"/></clipPath><clipPath id="10531d363d"><path d="M 174 0 L 217 0 L 217 36 L 174 36 Z M 174 0 " clip-rule="nonzero"/></clipPath><clipPath id="a2d35bb228"><path d="M 213 0 L 256 0 L 256 36 L 213 36 Z M 213 0 " clip-rule="nonzero"/></clipPath><clipPath id="6296d4f8f9"><path d="M 253 0 L 295 0 L 295 36 L 253 36 Z M 253 0 " clip-rule="nonzero"/></clipPath><clipPath id="59a53f030e"><path d="M 292 0 L 335 0 L 335 36 L 292 36 Z M 292 0 " clip-rule="nonzero"/></clipPath><clipPath id="b95dcf16f0"><path d="M 312 20 L 354 20 L 354 69 L 312 69 Z M 312 20 " clip-rule="nonzero"/></clipPath><clipPath id="2ad8e0b159"><rect x="0" width="355" y="0" height="375"/></clipPath></defs><g mask="url(#c85bbc266d)"><g transform="matrix(1, 0, 0, 1, 0, 0)"><g clip-path="url(#2ad8e0b159)"><g clip-path="url(#7a30abe18c)"><path fill="#000000" d="M 17.871094 340.964844 L -2.976562 328.902344 L -2.976562 304.78125 L 17.871094 292.71875 L 38.722656 304.78125 L 38.722656 328.902344 Z M -0.652344 327.609375 L 17.871094 338.292969 L 36.394531 327.609375 L 36.394531 306.246094 L 17.871094 295.5625 L -0.652344 306.160156 Z M -0.652344 327.609375 " fill-opacity="1" fill-rule="nonzero"/></g><path fill="#000000" d="M 37.601562 307.019531 L 16.753906 294.957031 L 16.753906 270.835938 L 37.601562 258.773438 L 58.449219 270.835938 L 58.449219 294.957031 Z M 19.078125 293.582031 L 37.601562 304.261719 L 56.125 293.582031 L 56.125 272.214844 L 37.601562 261.53125 L 19.078125 272.214844 Z M 19.078125 293.582031 " fill-opacity="1" fill-rule="nonzero"/><g clip-path="url(#ffdc948309)"><path fill="#000000" d="M 17.871094 272.988281 L -2.976562 260.929688 L -2.976562 236.804688 L 17.871094 224.742188 L 38.722656 236.804688 L 38.722656 260.929688 Z M -0.652344 259.550781 L 17.871094 270.234375 L 36.394531 259.550781 L 36.394531 238.183594 L 17.871094 227.5 L -0.652344 238.183594 Z M -0.652344 259.550781 " fill-opacity="1" fill-rule="nonzero"/></g><path fill="#000000" d="M 37.601562 238.960938 L 16.753906 226.898438 L 16.753906 202.773438 L 37.601562 190.714844 L 58.449219 202.773438 L 58.449219 226.898438 Z M 19.078125 225.605469 L 37.601562 236.289062 L 56.125 225.605469 L 56.125 204.238281 L 37.601562 193.554688 L 19.078125 204.238281 Z M 19.078125 225.605469 " fill-opacity="1" fill-rule="nonzero"/><path fill="#000000" d="M 37.601562 374.996094 L 16.753906 362.933594 L 16.753906 338.8125 L 37.601562 326.75 L 58.449219 338.8125 L 58.449219 362.933594 Z M 19.078125 361.554688 L 37.601562 372.238281 L 56.125 361.554688 L 56.125 340.1875 L 37.601562 329.507812 L 19.078125 340.1875 Z M 19.078125 361.554688 " fill-opacity="1" fill-rule="nonzero"/><path fill="#000000" d="M 37.601562 103.007812 L 16.753906 90.949219 L 16.753906 66.824219 L 37.601562 54.761719 L 58.449219 66.824219 L 58.449219 90.949219 Z M 19.078125 89.570312 L 37.601562 100.253906 L 56.125 89.570312 L 56.125 68.203125 L 37.601562 57.519531 L 19.078125 68.203125 Z M 19.078125 89.570312 " fill-opacity="1" fill-rule="nonzero"/><g clip-path="url(#7e86ee1b14)"><path fill="#000000" d="M 37.601562 35.035156 L 16.753906 22.972656 L 16.753906 -1.148438 L 37.601562 -13.210938 L 58.449219 -1.148438 L 58.449219 22.972656 Z M 19.078125 21.59375 L 37.601562 32.277344 L 56.125 21.59375 L 56.125 0.226562 L 37.601562 -10.539062 L 19.078125 0.226562 Z M 19.078125 21.59375 " fill-opacity="1" fill-rule="nonzero"/></g><path fill="#000000" d="M 37.601562 170.984375 L 16.753906 158.921875 L 16.753906 134.800781 L 37.601562 122.738281 L 58.449219 134.800781 L 58.449219 158.921875 Z M 19.078125 157.628906 L 37.601562 168.3125 L 56.125 157.628906 L 56.125 136.265625 L 37.601562 125.496094 L 19.078125 136.179688 Z M 19.078125 157.628906 " fill-opacity="1" fill-rule="nonzero"/><g clip-path="url(#e861773ee9)"><path fill="#000000" d="M 17.871094 137.039062 L -2.976562 124.976562 L -2.976562 100.855469 L 17.871094 88.792969 L 38.722656 100.855469 L 38.722656 124.976562 Z M -0.652344 123.601562 L 17.871094 134.28125 L 36.394531 123.601562 L 36.394531 102.234375 L 17.871094 91.550781 L -0.652344 102.148438 Z M -0.652344 123.601562 " fill-opacity="1" fill-rule="nonzero"/></g><g clip-path="url(#d3bcb04509)"><path fill="#000000" d="M 17.871094 68.980469 L -2.976562 56.917969 L -2.976562 32.792969 L 17.871094 20.734375 L 38.722656 32.792969 L 38.722656 56.917969 Z M -0.652344 55.625 L 17.871094 66.308594 L 36.394531 55.625 L 36.394531 34.171875 L 17.871094 23.488281 L -0.652344 34.171875 Z M -0.652344 55.625 " fill-opacity="1" fill-rule="nonzero"/></g><g clip-path="url(#d32c1566b2)"><path fill="#000000" d="M 17.871094 205.015625 L -2.976562 192.953125 L -2.976562 168.832031 L 17.871094 156.769531 L 38.722656 168.832031 L 38.722656 192.953125 Z M -0.652344 191.574219 L 17.871094 202.257812 L 36.394531 191.574219 L 36.394531 170.207031 L 17.871094 159.527344 L -0.652344 170.207031 Z M -0.652344 191.574219 " fill-opacity="1" fill-rule="nonzero"/></g><path fill="#000000" d="M 57.332031 340.964844 L 36.480469 328.902344 L 36.480469 304.78125 L 57.332031 292.71875 L 78.179688 304.78125 L 78.179688 328.902344 Z M 38.808594 327.609375 L 57.332031 338.292969 L 75.855469 327.609375 L 75.855469 306.246094 L 57.332031 295.476562 L 38.808594 306.160156 Z M 38.808594 327.609375 " fill-opacity="1" fill-rule="nonzero"/><path fill="#000000" d="M 57.332031 272.988281 L 36.480469 260.929688 L 36.480469 236.804688 L 57.332031 224.742188 L 78.179688 236.804688 L 78.179688 260.929688 Z M 38.808594 259.550781 L 57.332031 270.320312 L 75.855469 259.636719 L 75.855469 238.269531 L 57.332031 227.5 L 38.808594 238.183594 Z M 38.808594 259.550781 " fill-opacity="1" fill-rule="nonzero"/><path fill="#000000" d="M 57.332031 137.039062 L 36.480469 124.976562 L 36.480469 100.855469 L 57.332031 88.792969 L 78.179688 100.855469 L 78.179688 124.976562 Z M 38.808594 123.601562 L 57.332031 134.28125 L 75.855469 123.601562 L 75.855469 102.234375 L 57.332031 91.464844 L 38.808594 102.148438 Z M 38.808594 123.601562 " fill-opacity="1" fill-rule="nonzero"/><path fill="#000000" d="M 57.332031 68.980469 L 36.480469 56.917969 L 36.480469 32.792969 L 57.332031 20.734375 L 78.179688 32.792969 L 78.179688 56.917969 Z M 38.808594 55.625 L 57.332031 66.308594 L 75.855469 55.625 L 75.855469 34.171875 L 57.332031 23.488281 L 38.808594 34.171875 Z M 38.808594 55.625 " fill-opacity="1" fill-rule="nonzero"/><path fill="#000000" d="M 57.332031 205.015625 L 36.480469 192.953125 L 36.480469 168.832031 L 57.332031 156.769531 L 78.179688 168.832031 L 78.179688 192.953125 Z M 38.808594 191.574219 L 57.332031 202.257812 L 75.855469 191.574219 L 75.855469 170.207031 L 57.332031 159.441406 L 38.808594 170.121094 Z M 38.808594 191.574219 " fill-opacity="1" fill-rule="nonzero"/><path fill="#000000" d="M 77.058594 307.019531 L 56.210938 294.957031 L 56.210938 270.835938 L 77.058594 258.773438 L 97.910156 270.835938 L 97.910156 294.957031 Z M 58.449219 293.582031 L 76.972656 304.261719 L 95.496094 293.582031 L 95.496094 272.214844 L 76.972656 261.53125 L 58.449219 272.214844 Z M 58.449219 293.582031 " fill-opacity="1" fill-rule="nonzero"/><path fill="#000000" d="M 77.058594 374.996094 L 56.210938 362.933594 L 56.210938 338.8125 L 77.058594 326.75 L 97.910156 338.8125 L 97.910156 362.933594 Z M 58.449219 361.554688 L 76.972656 372.238281 L 95.496094 361.554688 L 95.496094 340.1875 L 76.972656 329.507812 L 58.449219 340.1875 Z M 58.449219 361.554688 " fill-opacity="1" fill-rule="nonzero"/><path fill="#000000" d="M 77.058594 103.007812 L 56.210938 90.949219 L 56.210938 66.824219 L 77.058594 54.761719 L 97.910156 66.824219 L 97.910156 90.949219 Z M 58.449219 89.570312 L 76.972656 100.253906 L 95.496094 89.570312 L 95.496094 68.203125 L 77.058594 57.519531 L 58.449219 68.203125 Z M 58.449219 89.570312 " fill-opacity="1" fill-rule="nonzero"/><g clip-path="url(#d903f87d28)"><path fill="#000000" d="M 77.058594 35.035156 L 56.125 22.972656 L 56.125 -1.148438 L 77.058594 -13.210938 L 97.910156 -1.148438 L 97.910156 22.972656 Z M 58.449219 21.59375 L 76.972656 32.277344 L 95.496094 21.59375 L 95.496094 0.226562 L 77.058594 -10.539062 L 58.449219 0.226562 Z M 58.449219 21.59375 " fill-opacity="1" fill-rule="nonzero"/></g><path fill="#000000" d="M 96.703125 340.964844 L 75.855469 328.902344 L 75.855469 304.78125 L 96.703125 292.71875 L 117.550781 304.78125 L 117.550781 328.902344 Z M 78.179688 327.609375 L 96.703125 338.292969 L 115.226562 327.609375 L 115.226562 306.246094 L 96.703125 295.5625 L 78.179688 306.246094 Z M 78.179688 327.609375 " fill-opacity="1" fill-rule="nonzero"/><path fill="#000000" d="M 96.703125 68.980469 L 75.855469 56.917969 L 75.855469 32.792969 L 96.703125 20.734375 L 117.550781 32.792969 L 117.550781 56.917969 Z M 78.179688 55.625 L 96.703125 66.308594 L 115.226562 55.625 L 115.226562 34.171875 L 96.703125 23.488281 L 78.179688 34.171875 Z M 78.179688 55.625 " fill-opacity="1" fill-rule="nonzero"/><path fill="#000000" d="M 116.433594 307.019531 L 95.582031 294.957031 L 95.582031 270.835938 L 116.433594 258.773438 L 137.28125 270.835938 L 137.28125 294.957031 Z M 97.910156 293.582031 L 116.433594 304.261719 L 134.953125 293.582031 L 134.953125 272.214844 L 116.433594 261.53125 L 97.910156 272.214844 Z M 97.910156 293.582031 " fill-opacity="1" fill-rule="nonzero"/><path fill="#000000" d="M 116.433594 103.007812 L 95.582031 90.949219 L 95.582031 66.824219 L 116.433594 54.761719 L 137.28125 66.824219 L 137.28125 90.949219 Z M 97.910156 89.570312 L 116.433594 100.253906 L 134.953125 89.570312 L 134.953125 68.203125 L 116.433594 57.519531 L 97.910156 68.203125 Z M 97.910156 89.570312 " fill-opacity="1" fill-rule="nonzero"/><g clip-path="url(#b865957497)"><path fill="#000000" d="M 116.433594 35.035156 L 95.582031 22.972656 L 95.582031 -1.148438 L 116.433594 -13.210938 L 137.28125 -1.148438 L 137.28125 22.972656 Z M 97.910156 21.59375 L 116.433594 32.277344 L 134.953125 21.59375 L 134.953125 0.226562 L 116.433594 -10.539062 L 97.910156 0.140625 Z M 97.910156 21.59375 " fill-opacity="1" fill-rule="nonzero"/></g><path fill="#000000" d="M 136.160156 68.980469 L 115.3125 56.917969 L 115.3125 32.792969 L 136.160156 20.734375 L 157.011719 32.792969 L 157.011719 56.917969 Z M 117.636719 55.625 L 136.160156 66.308594 L 154.683594 55.625 L 154.683594 34.171875 L 136.160156 23.488281 L 117.636719 34.171875 Z M 117.636719 55.625 " fill-opacity="1" fill-rule="nonzero"/><g clip-path="url(#2279d2ec84)"><path fill="#000000" d="M 155.890625 35.035156 L 135.039062 22.972656 L 135.039062 -1.148438 L 155.890625 -13.210938 L 176.738281 -1.148438 L 176.738281 22.972656 Z M 137.367188 21.59375 L 155.890625 32.277344 L 174.414062 21.59375 L 174.414062 0.226562 L 155.890625 -10.539062 L 137.367188 0.140625 Z M 137.367188 21.59375 " fill-opacity="1" fill-rule="nonzero"/></g><g clip-path="url(#10531d363d)"><path fill="#000000" d="M 195.261719 35.035156 L 174.414062 22.972656 L 174.414062 -1.148438 L 195.261719 -13.210938 L 216.109375 -1.148438 L 216.109375 22.972656 Z M 176.738281 21.59375 L 195.261719 32.277344 L 213.785156 21.59375 L 213.785156 0.226562 L 195.261719 -10.539062 L 176.738281 0.140625 Z M 176.738281 21.59375 " fill-opacity="1" fill-rule="nonzero"/></g><path fill="#000000" d="M 214.992188 68.980469 L 194.140625 56.917969 L 194.140625 32.792969 L 214.992188 20.734375 L 235.839844 32.792969 L 235.839844 56.917969 Z M 196.46875 55.625 L 214.992188 66.308594 L 233.515625 55.625 L 233.515625 34.171875 L 214.992188 23.488281 L 196.46875 34.171875 Z M 196.46875 55.625 " fill-opacity="1" fill-rule="nonzero"/><path fill="#000000" d="M 234.71875 103.007812 L 213.871094 90.949219 L 213.871094 66.824219 L 234.71875 54.761719 L 255.570312 66.824219 L 255.570312 90.949219 Z M 216.199219 89.570312 L 234.71875 100.253906 L 253.242188 89.570312 L 253.242188 68.203125 L 234.71875 57.519531 L 216.199219 68.203125 Z M 216.199219 89.570312 " fill-opacity="1" fill-rule="nonzero"/><g clip-path="url(#a2d35bb228)"><path fill="#000000" d="M 234.71875 35.035156 L 213.871094 22.972656 L 213.871094 -1.148438 L 234.71875 -13.210938 L 255.570312 -1.148438 L 255.570312 22.972656 Z M 216.199219 21.59375 L 234.71875 32.277344 L 253.242188 21.59375 L 253.242188 0.226562 L 234.71875 -10.539062 L 216.199219 0.140625 Z M 216.199219 21.59375 " fill-opacity="1" fill-rule="nonzero"/></g><path fill="#000000" d="M 254.449219 68.980469 L 233.601562 56.917969 L 233.601562 32.792969 L 254.449219 20.734375 L 275.296875 32.792969 L 275.296875 56.917969 Z M 235.839844 55.625 L 254.363281 66.308594 L 272.886719 55.625 L 272.886719 34.171875 L 254.363281 23.488281 L 235.839844 34.171875 Z M 235.839844 55.625 " fill-opacity="1" fill-rule="nonzero"/><path fill="#000000" d="M 274.09375 103.007812 L 253.242188 90.949219 L 253.242188 66.824219 L 274.09375 54.761719 L 294.941406 66.824219 L 294.941406 90.949219 Z M 255.570312 89.570312 L 274.09375 100.253906 L 292.617188 89.570312 L 292.617188 68.203125 L 274.09375 57.519531 L 255.570312 68.203125 Z M 255.570312 89.570312 " fill-opacity="1" fill-rule="nonzero"/><g clip-path="url(#6296d4f8f9)"><path fill="#000000" d="M 274.09375 35.035156 L 253.242188 22.972656 L 253.242188 -1.148438 L 274.09375 -13.210938 L 294.941406 -1.148438 L 294.941406 22.972656 Z M 255.570312 21.59375 L 274.09375 32.277344 L 292.617188 21.59375 L 292.617188 0.226562 L 274.09375 -10.539062 L 255.570312 0.140625 Z M 255.570312 21.59375 " fill-opacity="1" fill-rule="nonzero"/></g><path fill="#000000" d="M 293.820312 68.980469 L 272.972656 56.917969 L 272.972656 32.792969 L 293.820312 20.734375 L 314.671875 32.792969 L 314.671875 56.917969 Z M 275.296875 55.625 L 293.820312 66.308594 L 312.34375 55.625 L 312.34375 34.171875 L 293.820312 23.488281 L 275.296875 34.171875 Z M 275.296875 55.625 " fill-opacity="1" fill-rule="nonzero"/><path fill="#000000" d="M 313.550781 103.007812 L 292.703125 90.949219 L 292.703125 66.824219 L 313.550781 54.761719 L 334.398438 66.824219 L 334.398438 90.949219 Z M 295.027344 89.570312 L 313.550781 100.253906 L 332.074219 89.570312 L 332.074219 68.203125 L 313.550781 57.519531 L 295.027344 68.203125 Z M 295.027344 89.570312 " fill-opacity="1" fill-rule="nonzero"/><g clip-path="url(#59a53f030e)"><path fill="#000000" d="M 313.550781 35.035156 L 292.703125 22.972656 L 292.703125 -1.148438 L 313.550781 -13.210938 L 334.398438 -1.148438 L 334.398438 22.972656 Z M 295.027344 21.59375 L 313.550781 32.277344 L 332.074219 21.59375 L 332.074219 0.226562 L 313.550781 -10.539062 L 295.027344 0.140625 Z M 295.027344 21.59375 " fill-opacity="1" fill-rule="nonzero"/></g><g clip-path="url(#b95dcf16f0)"><path fill="#000000" d="M 333.28125 68.980469 L 312.429688 56.917969 L 312.429688 32.792969 L 333.28125 20.734375 L 354.128906 32.792969 L 354.128906 56.917969 Z M 314.671875 55.625 L 333.195312 66.308594 L 351.714844 55.625 L 351.714844 34.171875 L 333.195312 23.488281 L 314.671875 34.171875 Z M 314.671875 55.625 " fill-opacity="1" fill-rule="nonzero"/></g></g></g></g></svg>